<svg xmlns="http://www.w3.org/2000/svg" shape-rendering="geometricPrecision" text-rendering="geometricPrecision" image-rendering="optimizeQuality" fill-rule="evenodd" clip-rule="evenodd" viewBox="0 0 467 512.13"><path fill="gray" fill-rule="nonzero" d="M424.43 512.13H42.58C19.2 512.13 0 492.93 0 469.57V283.04h467v186.53c0 23.41-19.17 42.56-42.57 42.56z"/><path fill="#fff" d="M47.12 498.51h372.77c18.42 0 33.47-15.28 33.47-33.5V283.04H13.65v181.98c0 18.38 15.04 33.49 33.47 33.49z"/><path fill="#F13B31" d="M42.58 28.46h381.84c23.39 0 42.57 19.17 42.57 42.56v212.05H0V71.02c0-23.37 19.2-42.56 42.58-42.56z"/><path fill="#C72B20" d="M320.35 40.47c8.39 0 16 3.41 21.5 8.91 5.49 5.5 8.9 13.1 8.9 21.5 0 8.38-3.41 15.98-8.9 21.48-5.5 5.52-13.11 8.93-21.5 8.93-8.38 0-15.98-3.41-21.49-8.91-5.51-5.52-8.92-13.12-8.92-21.5 0-8.4 3.41-16 8.9-21.5l.3-.28c5.48-5.33 12.97-8.63 21.21-8.63z"/><path fill="#fff" d="M320.34 46.58c13.42 0 24.3 10.88 24.3 24.29 0 13.43-10.88 24.31-24.3 24.31-13.43 0-24.31-10.88-24.31-24.31 0-13.41 10.88-24.29 24.31-24.29z"/><path fill="#C72B20" d="M133.77 40.47c8.4 0 16 3.41 21.5 8.91s8.91 13.1 8.91 21.5c0 8.38-3.41 15.98-8.91 21.48-5.5 5.52-13.1 8.93-21.5 8.93-8.38 0-15.98-3.41-21.48-8.91-5.52-5.52-8.93-13.12-8.93-21.5 0-8.4 3.41-16 8.91-21.5l.3-.28c5.47-5.33 12.96-8.63 21.2-8.63z"/><path fill="#fff" d="M133.76 46.58c13.42 0 24.3 10.88 24.3 24.29 0 13.43-10.88 24.31-24.3 24.31-13.43 0-24.31-10.88-24.31-24.31 0-13.41 10.88-24.29 24.31-24.29z"/><path fill="#1A1A1A" fill-rule="nonzero" d="M116.4 14.24C116.4 6.38 124.16 0 133.76 0c9.61 0 17.38 6.38 17.38 14.24v54.45c0 7.86-7.77 14.24-17.38 14.24-9.6 0-17.36-6.38-17.36-14.24V14.24zM302.98 14.24c0-7.86 7.76-14.24 17.37-14.24 9.6 0 17.37 6.38 17.37 14.24v54.45c0 7.86-7.77 14.24-17.37 14.24-9.61 0-17.37-6.38-17.37-14.24V14.24z"/><path fill="#C2352C" fill-rule="nonzero" d="M110.25 185.39c0-17.02 3.18-29.43 9.55-37.25 6.37-7.81 17.87-11.72 34.49-11.72s28.12 3.91 34.49 11.72c6.37 7.82 9.55 20.23 9.55 37.25 0 8.46-.67 15.58-2.01 21.35-1.35 5.77-3.66 10.8-6.95 15.08-3.28 4.28-7.81 7.42-13.58 9.41-5.78 1.99-12.94 2.98-21.5 2.98s-15.73-.99-21.5-2.98-10.3-5.13-13.59-9.41c-3.28-4.28-5.59-9.31-6.94-15.08-1.34-5.77-2.01-12.89-2.01-21.35zm32.1-15.52v38.81h12.39c4.08 0 7.04-.47 8.88-1.42 1.84-.94 2.76-3.11 2.76-6.49v-38.82h-12.54c-3.98 0-6.89.48-8.73 1.42-1.84.95-2.76 3.11-2.76 6.5zm128.39 35.38l2.24 25.08c-6.27 2.59-14.14 3.88-23.59 3.88-9.46 0-17.05-.99-22.77-2.98-5.72-1.99-10.23-5.13-13.51-9.41-3.28-4.28-5.57-9.31-6.87-15.08-1.29-5.77-1.94-12.89-1.94-21.35s.65-15.6 1.94-21.42c1.3-5.82 3.59-10.87 6.87-15.15 6.37-8.27 18.06-12.4 35.08-12.4 3.79 0 8.24.38 13.37 1.12 5.12.75 8.93 1.67 11.42 2.77l-4.48 22.84c-6.47-1.4-12.39-2.09-17.77-2.09-5.37 0-9.1.49-11.19 1.49s-3.14 2.99-3.14 5.97v39.12c3.88.79 7.81 1.19 11.79 1.19 8.46 0 15.98-1.19 22.55-3.58zm79.12-42.7h-21.64v69.42h-29.86v-69.42h-21.65v-23.89h73.15v23.89z"/><path fill="#fff" fill-rule="nonzero" d="M114.87 190.61c0-17.02 3.18-29.43 9.55-37.25 6.37-7.81 17.87-11.72 34.49-11.72 16.63 0 28.12 3.91 34.49 11.72 6.37 7.82 9.56 20.23 9.56 37.25 0 8.47-.67 15.58-2.02 21.36-1.34 5.77-3.65 10.8-6.94 15.08-3.28 4.28-7.81 7.41-13.59 9.4-5.77 1.99-12.94 2.99-21.5 2.99s-15.72-1-21.5-2.99c-5.77-1.99-10.3-5.12-13.58-9.4-3.29-4.28-5.6-9.31-6.95-15.08-1.34-5.78-2.01-12.89-2.01-21.36zm32.1-15.52v38.82h12.39c4.08 0 7.04-.48 8.89-1.42 1.84-.95 2.76-3.11 2.76-6.5v-38.82h-12.55c-3.98 0-6.89.48-8.73 1.42-1.84.95-2.76 3.11-2.76 6.5zm128.4 35.38l2.24 25.09c-6.27 2.58-14.13 3.88-23.59 3.88-9.45 0-17.04-1-22.77-2.99-5.72-1.99-10.22-5.12-13.51-9.4-3.28-4.28-5.57-9.31-6.87-15.08-1.29-5.78-1.94-12.89-1.94-21.36 0-8.46.65-15.6 1.94-21.42 1.3-5.82 3.59-10.88 6.87-15.16 6.37-8.26 18.07-12.39 35.09-12.39 3.78 0 8.23.37 13.36 1.12 5.13.75 8.93 1.67 11.42 2.76l-4.48 22.85c-6.47-1.4-12.39-2.09-17.76-2.09-5.38 0-9.11.49-11.2 1.49-2.09.99-3.14 2.99-3.14 5.97v39.12c3.88.8 7.82 1.2 11.8 1.2 8.46 0 15.97-1.2 22.54-3.59zm79.14-42.7h-21.65v69.43H303v-69.43h-21.65v-23.89h73.16v23.89z"/><path fill="#1A1A1A" fill-rule="nonzero" d="M145.11 368.15l-4.42-25.36c14.29-4.31 28.53-6.46 42.71-6.46 5.67 0 10.4.17 14.2.51 3.8.34 7.75 1.19 11.83 2.55 4.08 1.36 7.32 3.23 9.7 5.61 5.44 5.45 8.17 13.79 8.17 25.02s-3.18 19.51-9.53 24.84c-6.36 5.33-19.74 11.46-40.16 18.38V418h47.99v27.23h-87.3v-21.27c0-6.36 1.2-12.42 3.58-18.21 1.47-3.29 5.05-7.26 10.72-11.91 3.06-2.61 7.17-5.11 12.33-7.49 5.17-2.38 10.04-4.62 14.64-6.72 4.59-2.1 8.31-3.83 11.14-5.19v-9.19c-5.1-.56-9.81-.85-14.12-.85-10.44 0-20.93 1.25-31.48 3.75zm183.6-8l-32.84 85.08h-38.46l30.46-76.74-40.84.51-2.55-30.12h84.23v21.27z"/></svg>